<?xml version="1.0" standalone="no"?>
<!DOCTYPE svg PUBLIC "-//W3C//DTD SVG 20010904//EN"
 "http://www.w3.org/TR/2001/REC-SVG-20010904/DTD/svg10.dtd">
<svg version="1.0" xmlns="http://www.w3.org/2000/svg"
 width="1500.000000pt" height="1500.000000pt" viewBox="0 0 1500.000000 1500.000000"
 preserveAspectRatio="xMidYMid meet">
<metadata>
Created by potrace 1.10, written by Peter Selinger 2001-2011
</metadata>
<g transform="translate(0.000000,1500.000000) scale(0.100000,-0.100000)"
fill="#000000" stroke="none">
<path d="M3023 14144 c-7 -3 -55 -72 -107 -153 -467 -727 -826 -1442 -960
-1909 -81 -280 -86 -465 -17 -600 28 -55 96 -121 148 -144 43 -19 47 -19 89
-3 145 55 346 441 423 814 11 51 21 94 23 96 15 15 139 72 135 62 -74 -194
-137 -470 -137 -598 0 -175 68 -307 185 -365 55 -26 56 -26 99 -10 137 52 319
386 405 741 18 72 34 139 36 151 3 14 26 31 67 52 128 63 271 211 310 320 20
56 23 143 6 160 -23 23 -37 12 -74 -54 -54 -97 -142 -211 -213 -276 -34 -32
-65 -58 -69 -58 -4 0 -7 53 -7 118 -1 174 -36 266 -116 308 -16 8 -29 19 -29
24 0 22 210 394 423 748 156 261 197 378 175 504 -21 119 -52 105 -169 -75
-220 -338 -444 -729 -631 -1102 -66 -132 -142 -272 -169 -311 -47 -68 -187
-214 -205 -214 -5 0 -8 39 -6 86 7 187 -32 290 -133 349 -16 10 -15 15 15 75
56 112 178 326 335 590 84 140 161 273 172 295 90 181 88 417 -4 379z m-532
-1526 c9 -56 0 -207 -17 -275 -8 -31 -31 -27 -58 10 -40 54 -27 283 21 356
l16 24 14 -27 c8 -15 19 -55 24 -88z m717 56 c22 -65 12 -327 -14 -353 -10
-10 -39 15 -56 50 -22 42 -23 147 -3 241 24 116 48 136 73 62z m-915 -363 c17
-30 106 -81 139 -81 10 0 18 -3 18 -6 0 -17 -65 -226 -96 -306 -79 -208 -193
-404 -250 -430 -87 -40 -82 156 12 452 43 136 144 400 153 400 4 0 14 -13 24
-29z m808 -61 c24 -11 52 -20 62 -20 21 0 22 9 -8 -96 -90 -315 -268 -654
-342 -654 -33 0 -47 48 -40 138 9 126 74 353 177 615 l42 109 33 -36 c18 -20
52 -45 76 -56z"/>
<path d="M1632 14124 c-235 -63 -550 -338 -731 -638 -94 -155 -155 -308 -192
-481 -20 -91 -17 -326 5 -405 56 -206 199 -342 402 -385 86 -18 131 -18 216 0
149 31 275 104 411 238 245 242 433 597 492 930 23 131 17 325 -14 411 -40
112 -109 198 -192 242 -19 9 -50 29 -69 45 -73 57 -210 75 -328 43z m312 -148
c73 -31 109 -123 108 -286 -1 -575 -532 -1351 -927 -1353 -71 -1 -111 17 -154
70 -54 66 -66 119 -65 293 0 136 4 167 28 255 15 55 46 145 70 200 155 367
484 713 769 810 83 28 124 31 171 11z"/>
</g>
</svg>
