<?xml version="1.0" standalone="no"?>
<!DOCTYPE svg PUBLIC "-//W3C//DTD SVG 20010904//EN"
 "http://www.w3.org/TR/2001/REC-SVG-20010904/DTD/svg10.dtd">
<svg version="1.0" xmlns="http://www.w3.org/2000/svg"
 width="1500.000000pt" height="1500.000000pt" viewBox="0 0 1500.000000 1500.000000"
 preserveAspectRatio="xMidYMid meet">
<metadata>
Created by potrace 1.15, written by Peter Selinger 2001-2017
</metadata>
<g transform="translate(0.000000,1500.000000) scale(0.100000,-0.100000)"
fill="#000000" stroke="none">
<path d="M10069 12138 c-68 -46 -697 -1031 -1186 -1858 -945 -1598 -1663
-3038 -2098 -4205 -243 -654 -385 -1171 -462 -1690 -25 -169 -25 -561 0 -692
66 -349 212 -600 466 -805 291 -234 542 -170 854 217 456 567 880 1599 1061
2584 13 73 28 136 33 140 4 4 40 20 78 36 89 35 217 104 322 171 l82 53 -36
-97 c-208 -570 -352 -1102 -424 -1572 -30 -195 -33 -584 -6 -727 67 -350 212
-600 466 -805 291 -234 542 -170 854 217 456 567 880 1599 1061 2584 13 73 28
136 33 140 4 4 40 20 78 36 249 100 495 273 745 524 218 218 324 363 386 530
120 319 132 538 33 629 -55 52 -115 15 -179 -110 -181 -348 -417 -675 -675
-934 -137 -137 -331 -301 -343 -290 -2 2 1 64 7 137 42 524 -36 946 -215 1163
-45 55 -188 166 -214 166 -4 0 -24 7 -44 15 l-37 16 82 157 c309 591 706 1285
1296 2267 420 699 539 937 613 1230 58 230 63 420 16 607 -39 153 -65 188
-142 188 -69 0 -98 -29 -232 -230 -889 -1338 -1867 -3055 -2497 -4381 -208
-438 -416 -740 -720 -1045 -137 -137 -331 -301 -343 -290 -2 2 1 64 7 137 42
524 -36 946 -215 1163 -45 55 -188 166 -214 166 -4 0 -24 7 -44 15 l-37 16 82
157 c309 591 706 1285 1296 2267 420 699 539 937 613 1230 58 230 63 420 16
607 -28 109 -46 150 -78 172 -33 23 -99 20 -139 -6z m-1852 -4757 c29 -42 58
-137 81 -256 26 -138 23 -489 -6 -705 -26 -193 -52 -344 -62 -360 -6 -9 -19
-7 -52 8 -155 68 -227 256 -215 561 12 292 103 694 174 774 24 26 54 17 80
-22z m2430 0 c29 -42 58 -137 81 -256 26 -138 23 -489 -6 -705 -26 -193 -52
-344 -62 -360 -6 -9 -19 -7 -52 8 -155 68 -227 256 -215 561 12 292 103 694
174 774 24 26 54 17 80 -22z m-3037 -1303 c106 -167 280 -272 523 -313 30 -5
37 -10 33 -23 -3 -9 -17 -64 -31 -122 -123 -496 -368 -1147 -607 -1618 -236
-463 -459 -742 -592 -742 -37 0 -79 45 -108 118 -21 52 -23 72 -22 237 0 139
5 209 22 310 62 361 200 845 396 1385 87 238 327 840 335 840 3 0 26 -32 51
-72z m2430 0 c106 -167 280 -272 523 -313 30 -5 37 -10 33 -23 -3 -9 -17 -64
-31 -122 -123 -496 -368 -1147 -607 -1618 -236 -463 -459 -742 -592 -742 -37
0 -79 45 -108 118 -21 52 -23 72 -22 237 0 139 5 209 22 310 62 361 200 845
396 1385 87 238 327 840 335 840 3 0 26 -32 51 -72z"/>
<path d="M5656 12124 c-370 -50 -760 -234 -1211 -571 -843 -630 -1561 -1590
-1898 -2538 -175 -492 -260 -1002 -243 -1451 35 -921 455 -1551 1196 -1792
679 -221 1348 -63 2025 478 156 125 462 428 605 600 272 327 543 732 752 1125
318 599 528 1247 605 1865 25 204 24 617 -1 785 -37 246 -107 467 -202 643
-123 226 -325 422 -554 537 -41 21 -100 61 -132 89 -216 195 -569 281 -942
230z m791 -518 c76 -24 168 -98 225 -181 121 -178 178 -432 178 -789 0 -422
-75 -834 -245 -1341 -449 -1345 -1371 -2576 -2260 -3016 -233 -116 -412 -164
-605 -162 -429 2 -678 311 -741 918 -15 147 -7 480 16 645 96 704 376 1414
817 2070 248 369 512 682 839 996 505 483 1074 816 1504 878 59 8 221 -2 272
-18z"/>
</g>
</svg>
