<?xml version="1.0" standalone="no"?>
<!DOCTYPE svg PUBLIC "-//W3C//DTD SVG 20010904//EN"
 "http://www.w3.org/TR/2001/REC-SVG-20010904/DTD/svg10.dtd">
<svg version="1.0" xmlns="http://www.w3.org/2000/svg"
 width="1094.000000pt" height="528.000000pt" viewBox="0 0 1094.000000 528.000000"
 preserveAspectRatio="xMidYMid meet">
<metadata>
Created by potrace 1.10, written by Peter Selinger 2001-2011
</metadata>
<g transform="translate(0.000000,528.000000) scale(0.100000,-0.100000)"
fill="#000000" stroke="none">
<path d="M710 5109 c-109 -21 -289 -142 -396 -266 -115 -131 -212 -303 -249
-438 -22 -80 -31 -256 -16 -323 26 -121 88 -204 189 -254 62 -31 74 -33 168
-33 99 0 102 1 188 44 153 75 303 248 410 471 75 158 99 252 100 405 1 126 0
132 -30 195 -29 62 -57 92 -134 146 -77 53 -148 69 -230 53z m209 -124 c40
-34 53 -80 53 -184 -1 -235 -138 -547 -328 -743 -124 -128 -229 -185 -325
-176 -56 6 -81 24 -112 83 -32 59 -31 237 1 350 52 178 151 344 292 485 97 97
170 150 256 185 78 32 124 32 163 0z"/>
<path d="M1531 4960 c-308 -486 -553 -985 -637 -1297 -37 -134 -40 -297 -7
-359 26 -49 75 -98 113 -114 104 -43 273 228 344 551 17 74 18 76 62 97 24 12
44 18 44 14 0 -4 -14 -47 -30 -96 -68 -204 -78 -367 -30 -460 33 -64 90 -110
135 -110 96 0 236 235 306 513 16 63 30 116 32 117 1 1 22 12 46 24 25 12 68
44 96 71 29 27 54 49 57 49 3 0 9 -16 12 -35 4 -19 21 -50 39 -69 78 -82 229
-68 356 33 l35 28 20 -41 c13 -26 34 -48 56 -58 65 -33 180 -18 250 32 37 26
42 25 60 -13 29 -62 40 -50 143 155 137 276 242 406 403 503 109 66 110 47 3
-137 -44 -76 -93 -169 -109 -206 -73 -174 -61 -296 35 -342 106 -51 257 1 352
122 29 35 34 38 40 22 30 -84 117 -147 218 -159 143 -18 345 79 434 209 46 67
61 146 27 146 -7 0 -33 -29 -59 -64 -162 -221 -396 -304 -469 -166 -12 23 -18
56 -18 98 0 59 17 152 27 152 2 0 23 -11 46 -24 59 -35 113 -41 180 -22 158
46 289 287 215 396 -32 46 -115 108 -157 116 -152 29 -404 -228 -452 -461 -28
-137 -181 -325 -265 -325 -13 0 -32 12 -44 28 -18 22 -21 36 -17 74 8 64 36
125 144 318 90 160 99 182 94 245 -5 59 -56 114 -107 115 -39 0 -130 -55 -215
-130 l-66 -59 4 72 c4 75 -9 119 -37 125 -17 3 -94 -112 -200 -303 -71 -126
-150 -292 -150 -313 0 -17 -110 -131 -141 -148 -15 -8 -44 -14 -64 -14 -80 0
-68 95 38 298 153 296 142 269 142 348 0 56 -4 76 -19 93 -13 14 -23 18 -35
11 -33 -17 -208 -328 -261 -465 -30 -75 -73 -136 -144 -203 -144 -136 -249
-100 -217 75 6 32 23 94 37 138 24 76 29 83 82 120 160 115 341 346 401 511
49 136 42 232 -22 293 -37 34 -65 23 -134 -56 -205 -233 -382 -550 -458 -824
-20 -71 -98 -190 -167 -254 l-53 -50 -6 100 c-7 111 -21 149 -70 188 l-31 24
27 54 c34 67 118 214 247 430 54 91 107 192 118 224 32 92 24 205 -14 205 -36
0 -404 -621 -542 -916 -26 -54 -61 -119 -77 -144 -32 -48 -136 -160 -149 -160
-4 0 -8 37 -8 81 0 120 -24 182 -85 216 -17 10 -11 23 68 164 47 85 130 230
186 322 55 93 110 194 122 225 37 96 28 212 -16 212 -7 0 -59 -72 -114 -160z
m1134 -92 c-18 -84 -83 -210 -169 -328 -45 -63 -175 -200 -189 -200 -24 0 229
428 303 513 49 56 64 60 55 15z m1589 -324 c40 -15 -4 -131 -91 -239 -53 -65
-112 -105 -156 -105 -34 0 -67 16 -67 33 0 24 102 171 154 222 41 39 124 95
143 95 1 0 8 -3 17 -6z m-2993 -425 c19 -37 11 -259 -11 -259 -4 0 -15 9 -26
21 -23 26 -26 138 -5 212 15 52 25 58 42 26z m500 -6 c13 -34 7 -229 -8 -244
-7 -7 -17 -2 -33 18 -20 25 -22 36 -17 108 5 82 22 145 38 145 5 0 14 -12 20
-27z m-58 -302 c20 -7 37 -16 37 -21 0 -5 -16 -57 -35 -117 -61 -186 -169
-383 -210 -383 -68 0 -30 213 95 532 l23 57 26 -28 c14 -15 43 -33 64 -40z
m-553 34 c12 -13 38 -29 56 -35 19 -7 34 -18 34 -25 0 -65 -143 -393 -199
-458 -37 -41 -55 -46 -71 -18 -14 27 -13 59 6 147 25 122 126 414 143 414 4 0
18 -11 31 -25z"/>
<path d="M2880 4805 c-48 -51 -25 -150 44 -183 36 -18 70 3 86 53 22 67 -31
155 -93 155 -7 0 -24 -11 -37 -25z"/>
</g>
</svg>
