<?xml version="1.0" standalone="no"?>
<!DOCTYPE svg PUBLIC "-//W3C//DTD SVG 20010904//EN"
 "http://www.w3.org/TR/2001/REC-SVG-20010904/DTD/svg10.dtd">
<svg version="1.0" xmlns="http://www.w3.org/2000/svg"
 width="1600.000000pt" height="1600.000000pt" viewBox="0 0 1600.000000 1600.000000"
 preserveAspectRatio="xMidYMid meet">
<metadata>
Created by potrace 1.15, written by Peter Selinger 2001-2017
</metadata>
<g transform="translate(0.000000,1600.000000) scale(0.100000,-0.100000)"
fill="#000000" stroke="none">
<path d="M10645 13088 c-23 -5 -57 -22 -77 -38 -95 -78 -991 -1494 -1593
-2515 -1996 -3388 -3147 -6123 -3276 -7780 -50 -647 118 -1183 483 -1546 386
-383 681 -408 1036 -87 497 450 1070 1567 1396 2723 89 316 199 799 222 972 3
29 12 59 18 67 6 8 43 26 81 41 111 44 311 148 428 224 59 39 107 67 107 64 0
-4 -40 -119 -89 -257 -370 -1041 -560 -1932 -537 -2510 21 -531 178 -929 488
-1237 386 -383 681 -408 1036 -87 497 450 1070 1567 1396 2723 89 316 199 799
222 972 3 29 12 59 18 67 6 8 43 26 81 41 202 79 488 251 700 420 130 103 395
363 498 488 183 220 260 356 336 592 63 193 84 303 84 430 -1 240 -124 365
-240 242 -17 -17 -59 -86 -93 -152 -172 -327 -376 -632 -618 -925 -116 -141
-377 -402 -492 -493 -100 -80 -189 -142 -193 -136 -2 2 0 45 6 94 15 139 14
681 -2 810 -67 558 -259 884 -593 1007 -32 11 -58 24 -58 27 0 17 353 677 573
1071 351 629 662 1159 1355 2313 282 468 415 714 512 945 185 441 241 827 166
1152 -45 194 -83 263 -157 279 -49 11 -110 -5 -151 -39 -38 -31 -183 -246
-498 -735 -1133 -1762 -2227 -3708 -2963 -5270 -153 -325 -280 -536 -485 -810
-248 -330 -558 -645 -800 -812 -28 -20 -54 -34 -55 -32 -2 2 0 45 6 94 15 139
14 681 -2 810 -67 558 -259 884 -593 1007 -32 11 -58 24 -58 27 0 17 353 677
573 1071 351 629 662 1159 1355 2313 282 468 415 714 512 945 185 441 241 827
166 1152 -55 239 -108 303 -231 278z m-2459 -6195 c88 -147 143 -489 130 -806
-13 -319 -90 -892 -122 -904 -30 -11 -110 32 -170 92 -179 178 -217 503 -124
1060 65 391 151 622 229 613 19 -2 34 -16 57 -55z m3150 0 c88 -147 143 -489
130 -806 -13 -319 -90 -892 -122 -904 -30 -11 -110 32 -170 92 -179 178 -217
503 -124 1060 65 391 151 622 229 613 19 -2 34 -16 57 -55z m-3957 -1657 c134
-225 356 -370 645 -420 49 -9 91 -18 94 -20 6 -7 -67 -284 -139 -526 -277
-930 -705 -1883 -1074 -2392 -92 -127 -229 -262 -299 -294 -78 -36 -118 -29
-168 26 -167 187 -116 768 148 1675 144 495 396 1197 636 1775 50 118 92 223
95 233 3 9 8 17 12 17 3 0 26 -34 50 -74z m3150 0 c134 -225 356 -370 645
-420 49 -9 91 -18 94 -20 6 -7 -67 -284 -139 -526 -277 -930 -705 -1883 -1074
-2392 -92 -127 -229 -262 -299 -294 -78 -36 -118 -29 -168 26 -167 187 -116
768 148 1675 144 495 396 1197 636 1775 50 118 92 223 95 233 3 9 8 17 12 17
3 0 26 -34 50 -74z"/>
<path d="M4925 13058 c-413 -46 -861 -228 -1335 -542 -396 -263 -712 -527
-1100 -922 -792 -806 -1379 -1744 -1699 -2714 -126 -383 -206 -758 -247 -1155
-24 -235 -25 -675 0 -875 127 -1052 649 -1742 1541 -2035 393 -130 781 -155
1190 -80 1121 207 2259 1252 3161 2900 520 950 834 2073 834 2981 0 855 -265
1500 -768 1872 -82 61 -227 146 -292 172 -19 8 -67 44 -106 80 -276 250 -720
370 -1179 318z m956 -677 c470 -147 654 -962 463 -2051 -226 -1293 -959 -2776
-1885 -3815 -212 -238 -494 -503 -733 -689 -356 -277 -764 -479 -1096 -542
-140 -26 -348 -24 -465 5 -282 69 -486 267 -610 589 -308 801 -107 2122 505
3337 692 1371 1937 2632 3022 3059 321 126 612 165 799 107z"/>
</g>
</svg>
