<?xml version="1.0" standalone="no"?>
<!DOCTYPE svg PUBLIC "-//W3C//DTD SVG 20010904//EN"
 "http://www.w3.org/TR/2001/REC-SVG-20010904/DTD/svg10.dtd">
<svg version="1.0" xmlns="http://www.w3.org/2000/svg"
 width="1355.000000pt" height="1355.000000pt" viewBox="0 0 1355.000000 1355.000000"
 preserveAspectRatio="xMidYMid meet">
<metadata>
Created by potrace 1.15, written by Peter Selinger 2001-2017
</metadata>
<g transform="translate(0.000000,1355.000000) scale(0.100000,-0.100000)"
fill="#000000" stroke="none">
<path d="M10085 12863 c-56 -29 -78 -58 -280 -363 -1098 -1660 -2322 -3794
-3086 -5380 -914 -1900 -1410 -3337 -1534 -4442 -20 -177 -20 -532 0 -685 67
-510 275 -882 659 -1172 75 -57 152 -98 236 -127 75 -25 224 -25 300 0 242 81
484 318 774 758 426 647 809 1579 1040 2529 52 213 117 529 131 636 7 49 8 49
59 67 87 30 346 162 451 230 55 35 101 64 102 62 1 -1 -22 -69 -53 -151 -285
-779 -482 -1547 -549 -2147 -20 -177 -20 -532 0 -685 67 -510 275 -882 659
-1172 75 -57 152 -98 236 -127 75 -25 224 -25 300 0 242 81 484 318 774 758
426 647 809 1579 1040 2529 52 213 117 529 131 636 l7 49 67 24 c100 36 333
157 451 234 351 230 690 553 905 861 86 124 118 184 163 305 90 243 126 415
120 572 -4 94 -8 114 -36 170 -35 71 -70 98 -126 98 -58 0 -104 -51 -182 -198
-265 -506 -625 -985 -984 -1310 -102 -92 -299 -246 -306 -239 -2 2 1 55 7 118
16 177 13 621 -5 782 -62 541 -244 858 -574 997 -34 15 -65 29 -68 33 -6 6
216 429 424 807 383 696 765 1353 1405 2415 444 738 561 962 676 1288 87 249
123 442 124 662 0 170 -16 283 -63 428 -29 93 -54 129 -107 156 -56 28 -150 3
-205 -56 -54 -58 -577 -865 -938 -1448 -656 -1060 -1261 -2114 -1810 -3155
-188 -358 -565 -1112 -711 -1425 -51 -110 -120 -245 -152 -300 -239 -403 -554
-799 -847 -1063 -102 -93 -299 -246 -306 -239 -2 2 1 55 7 118 16 177 13 621
-5 782 -62 541 -244 858 -574 997 -34 15 -65 29 -68 33 -6 6 216 429 424 807
383 696 765 1353 1405 2415 444 738 561 962 676 1288 87 249 123 442 124 662
0 170 -16 283 -63 428 -29 93 -54 129 -107 156 -31 16 -103 13 -138 -6z
m-2457 -6150 c49 -42 106 -206 139 -398 25 -149 25 -564 0 -775 -19 -157 -61
-430 -80 -521 l-12 -57 -52 20 c-82 30 -156 105 -202 202 -109 229 -113 532
-15 1037 47 244 108 426 161 482 31 32 34 32 61 10z m3150 0 c49 -42 106 -206
139 -398 25 -149 25 -564 0 -775 -19 -157 -61 -430 -80 -521 l-12 -57 -52 20
c-82 30 -156 105 -202 202 -109 229 -113 532 -15 1037 47 244 108 426 161 482
31 32 34 32 61 10z m-3942 -1675 c29 -58 114 -166 169 -216 138 -127 330 -212
536 -240 l56 -7 -44 -165 c-400 -1511 -1184 -3060 -1547 -3060 -31 0 -46 7
-76 37 -162 163 -128 696 95 1508 161 584 367 1162 753 2113 14 34 29 62 33
62 5 0 16 -15 25 -32z m3150 0 c29 -58 114 -166 169 -216 138 -127 330 -212
536 -240 l56 -7 -44 -165 c-400 -1511 -1184 -3060 -1547 -3060 -31 0 -46 7
-76 37 -162 163 -128 696 95 1508 161 584 367 1162 753 2113 14 34 29 62 33
62 5 0 16 -15 25 -32z"/>
<path d="M4495 12853 c-569 -38 -1199 -333 -1884 -883 -1144 -918 -2034 -2214
-2406 -3500 -138 -480 -194 -844 -202 -1325 -8 -483 30 -780 147 -1135 236
-720 718 -1200 1431 -1428 249 -80 459 -112 725 -112 423 0 758 82 1179 290
836 412 1645 1267 2335 2465 119 207 341 656 425 860 605 1463 678 2862 191
3689 -164 278 -404 503 -694 650 -48 25 -116 70 -150 101 -271 238 -667 357
-1097 328z m816 -687 c315 -67 511 -404 569 -980 16 -153 8 -572 -15 -756 -91
-751 -345 -1551 -744 -2348 -397 -793 -848 -1441 -1381 -1986 -558 -570 -1103
-914 -1620 -1023 -63 -13 -127 -18 -250 -17 -150 1 -173 3 -255 28 -49 15
-119 43 -156 62 -489 257 -677 1106 -483 2184 76 423 232 920 429 1365 275
622 705 1286 1206 1860 142 163 497 519 649 651 633 551 1242 885 1760 967 61
10 231 5 291 -7z"/>
</g>
</svg>
