<?xml version="1.0" standalone="no"?>
<!DOCTYPE svg PUBLIC "-//W3C//DTD SVG 20010904//EN"
 "http://www.w3.org/TR/2001/REC-SVG-20010904/DTD/svg10.dtd">
<svg version="1.0" xmlns="http://www.w3.org/2000/svg"
 width="1600.000000pt" height="1600.000000pt" viewBox="0 0 1600.000000 1600.000000"
 preserveAspectRatio="xMidYMid meet">
<metadata>
Created by potrace 1.15, written by Peter Selinger 2001-2017
</metadata>
<g transform="translate(0.000000,1600.000000) scale(0.100000,-0.100000)"
fill="#000000" stroke="none">
<path d="M10598 13080 c-53 -28 -78 -61 -290 -385 -1469 -2243 -2835 -4720
-3628 -6580 -562 -1318 -887 -2393 -975 -3220 -19 -184 -19 -529 0 -682 57
-445 238 -806 535 -1069 209 -185 340 -249 510 -249 187 0 333 79 545 293 126
129 223 251 360 457 509 765 950 1913 1160 3018 19 103 35 195 35 205 0 12 19
24 63 41 105 39 316 147 432 220 61 38 111 68 112 67 2 -1 -27 -83 -62 -182
-285 -783 -479 -1545 -540 -2119 -19 -184 -19 -529 0 -682 57 -445 238 -806
535 -1069 209 -185 340 -249 510 -249 187 0 333 79 545 293 126 129 223 251
360 457 509 765 950 1913 1160 3018 19 103 35 195 35 205 0 12 32 30 118 65
209 84 445 227 667 403 131 104 454 425 545 542 90 115 176 245 211 319 44 92
125 343 149 463 29 140 25 299 -10 378 -31 71 -79 112 -130 112 -58 0 -107
-49 -166 -163 -318 -618 -776 -1191 -1209 -1517 -51 -39 -96 -70 -100 -70 -4
0 -4 21 0 48 14 104 22 466 14 641 -28 627 -186 989 -509 1173 -25 14 -67 33
-93 43 -26 10 -50 22 -53 27 -9 14 350 685 674 1258 319 566 598 1042 1181
2010 195 324 387 658 441 765 326 645 410 1137 269 1575 -37 111 -88 160 -169
160 -48 0 -104 -26 -142 -67 -71 -75 -772 -1173 -1194 -1868 -892 -1469 -1756
-3060 -2296 -4228 -195 -422 -618 -985 -987 -1314 -92 -82 -273 -223 -286
-223 -4 0 -4 21 0 48 14 104 22 466 14 641 -28 627 -186 989 -509 1173 -25 14
-67 33 -93 43 -26 10 -50 22 -53 27 -9 14 350 685 674 1258 319 566 598 1042
1181 2010 195 324 387 658 441 765 326 645 410 1137 269 1575 -37 113 -88 160
-171 160 -24 -1 -60 -10 -80 -20z m-2438 -6160 c54 -57 107 -241 135 -460 33
-255 8 -682 -65 -1097 -16 -94 -30 -174 -30 -176 0 -10 -61 12 -104 37 -136
79 -213 247 -236 509 -24 287 76 906 182 1122 22 43 66 95 81 95 5 0 22 -14
37 -30z m3150 0 c54 -57 107 -241 135 -460 33 -255 8 -682 -65 -1097 -16 -94
-30 -174 -30 -176 0 -10 -61 12 -104 37 -136 79 -213 247 -236 509 -24 287 76
906 182 1122 22 43 66 95 81 95 5 0 22 -14 37 -30z m-3850 -1808 c136 -162
370 -282 600 -308 l58 -6 -40 -152 c-322 -1237 -929 -2565 -1355 -2967 -118
-112 -201 -136 -266 -79 -115 101 -139 399 -66 840 78 476 280 1161 573 1945
86 228 284 728 345 869 l22 49 37 -63 c20 -34 62 -92 92 -128z m3150 0 c136
-162 370 -282 600 -308 l58 -6 -40 -152 c-322 -1237 -929 -2565 -1355 -2967
-118 -112 -201 -136 -266 -79 -115 101 -139 399 -66 840 78 476 280 1161 573
1945 86 228 284 728 345 869 l22 49 37 -63 c20 -34 62 -92 92 -128z"/>
<path d="M4972 13069 c-435 -36 -898 -222 -1422 -572 -371 -248 -691 -518
-1065 -898 -695 -708 -1223 -1501 -1570 -2359 -189 -469 -308 -932 -372 -1450
-26 -212 -26 -810 0 -995 76 -532 234 -936 506 -1285 284 -366 725 -636 1236
-758 343 -82 719 -84 1075 -6 1073 236 2170 1248 3038 2805 667 1196 991 2576
842 3587 -54 367 -172 690 -350 957 -146 218 -387 428 -634 552 -53 27 -115
68 -148 98 -195 180 -484 296 -813 324 -134 12 -175 12 -323 0z m866 -684
c309 -73 504 -407 562 -965 13 -126 13 -457 -1 -617 -86 -1055 -566 -2330
-1286 -3423 -279 -422 -528 -733 -858 -1068 -389 -396 -721 -649 -1100 -837
-512 -254 -978 -272 -1274 -49 -211 159 -358 452 -425 849 -53 311 -45 759 19
1160 206 1277 903 2588 1935 3639 710 723 1483 1210 2080 1311 104 18 272 18
348 0z"/>
</g>
</svg>
