<?xml version="1.0" standalone="no"?>
<!DOCTYPE svg PUBLIC "-//W3C//DTD SVG 20010904//EN"
 "http://www.w3.org/TR/2001/REC-SVG-20010904/DTD/svg10.dtd">
<svg version="1.0" xmlns="http://www.w3.org/2000/svg"
 width="1094.000000pt" height="528.000000pt" viewBox="0 0 1094.000000 528.000000"
 preserveAspectRatio="xMidYMid meet">
<metadata>
Created by potrace 1.15, written by Peter Selinger 2001-2017
</metadata>
<g transform="translate(0.000000,528.000000) scale(0.100000,-0.100000)"
fill="#000000" stroke="none">
<path d="M3953 4856 c-67 -83 -428 -662 -649 -1042 -658 -1134 -1075 -2093
-1190 -2739 -25 -139 -25 -386 -1 -475 31 -117 92 -226 168 -301 157 -155 274
-156 423 -4 232 235 493 829 582 1324 l17 93 63 28 c35 16 88 45 120 65 42 27
55 32 50 18 -70 -177 -178 -559 -212 -748 -25 -139 -25 -386 -1 -475 31 -117
92 -226 168 -301 157 -155 274 -156 423 -4 232 234 493 829 582 1322 l17 93
91 45 c112 55 237 148 338 252 l77 79 15 -69 c41 -181 147 -285 330 -324 204
-43 449 40 668 228 31 27 59 49 61 49 3 0 9 -15 12 -33 11 -49 65 -145 98
-173 168 -142 476 -115 716 61 40 30 63 41 65 33 3 -7 10 -30 16 -50 14 -45
73 -124 99 -133 33 -10 48 5 86 88 245 525 352 730 490 937 114 170 192 265
326 395 250 241 555 424 567 339 4 -27 -58 -147 -202 -389 -200 -336 -304
-559 -357 -760 -31 -120 -34 -314 -5 -390 43 -112 116 -181 229 -217 232 -72
481 4 702 214 50 48 111 114 136 148 41 57 44 59 53 38 53 -137 124 -234 222
-301 232 -158 573 -153 909 13 143 71 265 160 368 269 132 141 194 255 204
377 6 72 -7 104 -43 104 -18 0 -33 -12 -57 -46 -132 -189 -254 -333 -367 -429
-208 -178 -383 -257 -575 -259 -74 0 -99 4 -140 22 -142 65 -204 207 -192 440
6 109 44 293 65 314 5 5 24 -4 43 -18 18 -14 64 -41 102 -60 229 -117 465 -74
677 123 107 100 171 185 230 308 59 122 80 205 80 316 0 111 -24 164 -122 262
-164 165 -298 224 -448 197 -299 -54 -630 -361 -846 -786 -74 -145 -144 -370
-144 -461 0 -32 -106 -208 -203 -339 -93 -123 -228 -253 -302 -290 -72 -35
-151 -38 -192 -8 -95 71 -96 242 -2 472 42 102 110 230 279 522 221 380 247
445 237 573 -14 162 -135 306 -258 307 -122 1 -361 -152 -608 -390 -52 -49
-95 -90 -96 -90 0 0 7 39 17 88 34 161 9 340 -58 403 -23 22 -27 22 -51 9 -28
-17 -233 -335 -388 -605 -183 -318 -349 -649 -416 -830 -41 -111 -101 -196
-217 -307 -256 -243 -470 -211 -422 62 28 160 111 352 314 718 207 376 243
462 253 612 10 147 -42 280 -111 288 -38 5 -53 -11 -145 -152 -183 -280 -427
-744 -532 -1009 -56 -143 -91 -201 -203 -335 -174 -209 -350 -330 -495 -339
-54 -3 -72 -1 -98 16 -95 60 -109 251 -38 524 27 103 98 315 120 358 8 15 50
52 92 82 255 180 535 463 729 735 274 385 419 800 363 1042 -29 128 -143 260
-224 260 -42 0 -76 -23 -161 -112 -327 -341 -695 -893 -922 -1384 -110 -238
-238 -590 -267 -734 -25 -126 -275 -482 -436 -620 -113 -97 -104 -107 -105
108 0 143 -4 204 -17 257 -37 146 -95 233 -190 281 l-48 25 62 117 c154 290
355 641 627 1097 246 410 312 559 328 739 8 86 -9 200 -36 244 -28 45 -69 44
-107 -2 -67 -83 -429 -664 -649 -1042 -247 -426 -512 -927 -665 -1254 -107
-231 -256 -438 -410 -570 -113 -97 -104 -107 -105 108 0 143 -4 204 -17 257
-37 146 -95 233 -190 281 l-48 25 62 117 c154 290 355 641 627 1097 246 410
312 559 328 739 8 86 -9 200 -36 244 -28 45 -69 44 -107 -2z m2528 -513 c3
-47 -5 -86 -37 -182 -85 -258 -283 -586 -515 -856 -85 -99 -297 -308 -332
-326 -17 -10 -17 -8 -2 28 25 58 127 247 250 464 266 464 502 811 593 871 34
22 42 22 43 1z m3859 -853 c22 0 40 -34 40 -75 0 -134 -160 -414 -340 -596
-105 -106 -186 -155 -276 -165 -54 -7 -143 13 -179 40 -20 14 -19 16 23 103
123 250 354 521 539 633 63 38 151 72 171 65 8 -3 17 -5 22 -5z m-7280 -1023
c49 -111 53 -307 9 -569 -8 -49 -15 -68 -26 -68 -28 0 -71 39 -94 87 -22 43
-24 61 -23 178 0 141 25 283 62 369 26 58 47 59 72 3z m1210 0 c49 -111 53
-307 9 -569 -8 -49 -15 -68 -26 -68 -28 0 -71 39 -94 87 -22 43 -24 61 -23
178 0 141 25 283 62 369 26 58 47 59 72 3z m-1526 -626 c33 -64 167 -151 234
-151 42 -1 46 -13 27 -91 -93 -386 -353 -957 -505 -1109 -95 -95 -149 -65
-158 90 -9 148 46 396 167 750 71 211 201 540 212 540 5 0 15 -13 23 -29z
m1210 0 c33 -64 167 -151 234 -151 42 -1 46 -13 27 -91 -93 -386 -353 -957
-505 -1109 -95 -95 -149 -65 -158 90 -9 148 46 396 167 750 71 211 201 540
212 540 5 0 15 -13 23 -29z"/>
<path d="M1728 4864 c-417 -75 -993 -571 -1323 -1139 -325 -559 -405 -1207
-200 -1615 142 -284 438 -459 776 -460 306 0 586 137 885 435 382 381 683 934
788 1446 75 367 56 660 -56 889 -34 68 -59 102 -128 170 -48 48 -107 96 -135
110 -28 13 -68 39 -90 58 -125 104 -314 143 -517 106z m469 -266 c64 -29 116
-108 148 -223 22 -82 31 -308 16 -431 -73 -598 -423 -1286 -873 -1719 -133
-129 -246 -212 -374 -276 -123 -62 -210 -83 -322 -77 -143 7 -222 62 -288 202
-49 105 -67 205 -66 376 0 295 78 598 238 920 249 500 672 954 1080 1158 193
97 336 119 441 70z"/>
<path d="M7030 4158 c-19 -13 -45 -45 -59 -73 -22 -42 -26 -63 -26 -140 0 -85
2 -94 36 -155 49 -89 100 -125 179 -125 72 0 104 21 140 91 21 41 25 62 25
139 0 75 -4 98 -24 135 -66 128 -187 184 -271 128z"/>
</g>
</svg>
